<svg xmlns="http://www.w3.org/2000/svg" display="none">
    <symbol id="search">
        <path d="M18.7825 17.8092L23.2436 22.2703L21.7705 23.7434L17.3093 19.2823C15.7053 20.5656 13.671 21.3333 11.4585 21.3333C6.2835 21.3333 2.0835 17.1333 2.0835 11.9583C2.0835 6.78333 6.2835 2.58333 11.4585 2.58333C16.6335 2.58333 20.8335 6.78333 20.8335 11.9583C20.8335 14.1708 20.0658 16.2051 18.7825 17.8092ZM16.6926 17.0362C17.9663 15.7235 18.7502 13.9329 18.7502 11.9583C18.7502 7.92968 15.4871 4.66666 11.4585 4.66666C7.42985 4.66666 4.16683 7.92968 4.16683 11.9583C4.16683 15.987 7.42985 19.25 11.4585 19.25C13.4331 19.25 15.2237 18.4661 16.5364 17.1924L16.6926 17.0362Z" fill="#493521"/>
    </symbol>
    <symbol id="shop">
        <path d="M7.29655 8.83282V6.74948C7.29655 3.873 9.6284 1.54115 12.5049 1.54115C15.3814 1.54115 17.7132 3.873 17.7132 6.74948V8.83282H20.8382C21.4135 8.83282 21.8799 9.29919 21.8799 9.87448V22.3745C21.8799 22.9498 21.4135 23.4161 20.8382 23.4161H4.17155C3.59626 23.4161 3.12988 22.9498 3.12988 22.3745V9.87448C3.12988 9.29919 3.59626 8.83282 4.17155 8.83282H7.29655ZM7.29655 10.9162H5.21322V21.3328H19.7966V10.9162H17.7132V12.9995H15.6299V10.9162H9.37988V12.9995H7.29655V10.9162ZM9.37988 8.83282H15.6299V6.74948C15.6299 5.0236 14.2307 3.62448 12.5049 3.62448C10.779 3.62448 9.37988 5.0236 9.37988 6.74948V8.83282Z" fill="#493521"/>
    </symbol>
    <symbol id="next__arrow">
        <path d="M3.54506 0.5L0.372559 3.6725L10.6776 14L0.372559 24.3275L3.54506 27.5L17.0451 14L3.54506 0.5Z" fill="#F9F5EF"/>
    </symbol>
    <symbol id="prev__arrow">
        <path d="M16.6725 3.6725L13.5 0.5L0 14L13.5 27.5L16.6725 24.3275L6.3675 14L16.6725 3.6725Z" fill="#F9F5EF"/>
    </symbol>
</svg>