<svg xmlns="http://www.w3.org/2000/svg" display="none">
    <symbol id="search">
        <path d="M18.7825 17.8092L23.2436 22.2703L21.7705 23.7434L17.3093 19.2823C15.7053 20.5656 13.671 21.3333 11.4585 21.3333C6.2835 21.3333 2.0835 17.1333 2.0835 11.9583C2.0835 6.78333 6.2835 2.58333 11.4585 2.58333C16.6335 2.58333 20.8335 6.78333 20.8335 11.9583C20.8335 14.1708 20.0658 16.2051 18.7825 17.8092ZM16.6926 17.0362C17.9663 15.7235 18.7502 13.9329 18.7502 11.9583C18.7502 7.92968 15.4871 4.66666 11.4585 4.66666C7.42985 4.66666 4.16683 7.92968 4.16683 11.9583C4.16683 15.987 7.42985 19.25 11.4585 19.25C13.4331 19.25 15.2237 18.4661 16.5364 17.1924L16.6926 17.0362Z" fill="#493521"/>
    </symbol>
    <symbol id="search-form">
        <path d="M18.7825 17.8092L23.2436 22.2703L21.7705 23.7434L17.3093 19.2823C15.7053 20.5656 13.671 21.3333 11.4585 21.3333C6.2835 21.3333 2.0835 17.1333 2.0835 11.9583C2.0835 6.78333 6.2835 2.58333 11.4585 2.58333C16.6335 2.58333 20.8335 6.78333 20.8335 11.9583C20.8335 14.1708 20.0658 16.2051 18.7825 17.8092ZM16.6926 17.0362C17.9663 15.7235 18.7502 13.9329 18.7502 11.9583C18.7502 7.92968 15.4871 4.66666 11.4585 4.66666C7.42985 4.66666 4.16683 7.92968 4.16683 11.9583C4.16683 15.987 7.42985 19.25 11.4585 19.25C13.4331 19.25 15.2237 18.4661 16.5364 17.1924L16.6926 17.0362Z" fill="#988572"/>
    </symbol>
    <symbol id="burger">
        <path d="M15 18C15.5523 18 16 18.4477 16 19C16 19.5523 15.5523 20 15 20H1C0.447715 20 0 19.5523 0 19C0 18.4477 0.447715 18 1 18H15ZM19 9C19.5523 9 20 9.44772 20 10C20 10.5523 19.5523 11 19 11H1C0.447715 11 0 10.5523 0 10C0 9.44771 0.447715 9 1 9H19ZM23 0C23.5523 7.24787e-08 24 0.447715 24 1C24 1.55228 23.5523 2 23 2H1C0.447715 2 0 1.55228 0 1C8.05326e-09 0.447715 0.447715 2.41596e-08 1 0H23Z" fill="#121212"/>
    </symbol>
    <symbol id="shop">
        <path d="M7.29655 8.83282V6.74948C7.29655 3.873 9.6284 1.54115 12.5049 1.54115C15.3814 1.54115 17.7132 3.873 17.7132 6.74948V8.83282H20.8382C21.4135 8.83282 21.8799 9.29919 21.8799 9.87448V22.3745C21.8799 22.9498 21.4135 23.4161 20.8382 23.4161H4.17155C3.59626 23.4161 3.12988 22.9498 3.12988 22.3745V9.87448C3.12988 9.29919 3.59626 8.83282 4.17155 8.83282H7.29655ZM7.29655 10.9162H5.21322V21.3328H19.7966V10.9162H17.7132V12.9995H15.6299V10.9162H9.37988V12.9995H7.29655V10.9162ZM9.37988 8.83282H15.6299V6.74948C15.6299 5.0236 14.2307 3.62448 12.5049 3.62448C10.779 3.62448 9.37988 5.0236 9.37988 6.74948V8.83282Z" fill="#493521"/>
    </symbol>
    <symbol id="next__arrow">
        <path d="M3.54506 0.5L0.372559 3.6725L10.6776 14L0.372559 24.3275L3.54506 27.5L17.0451 14L3.54506 0.5Z" fill="#F9F5EF"/>
    </symbol>
    <symbol id="prev__arrow">
        <path d="M16.6725 3.6725L13.5 0.5L0 14L13.5 27.5L16.6725 24.3275L6.3675 14L16.6725 3.6725Z" fill="#F9F5EF"/>
    </symbol>
    <symbol id="prev__arrow-about">
        <path d="M16.6725 3.6725L13.5 0.5L0 14L13.5 27.5L16.6725 24.3275L6.3675 14L16.6725 3.6725Z" fill="#49352099"/>
    </symbol>
    <symbol id="next__arrow-about">
        <path d="M3.54506 0.5L0.372559 3.6725L10.6776 14L0.372559 24.3275L3.54506 27.5L17.0451 14L3.54506 0.5Z" fill="#49352099"/>
    </symbol>
    <symbol id="whatsapp">
        <path d="M23.8125 6.13757C22.6663 4.9802 21.3013 4.06253 19.7969 3.43802C18.2925 2.81352 16.6789 2.49467 15.05 2.50007C8.225 2.50007 2.6625 8.06257 2.6625 14.8876C2.6625 17.0751 3.2375 19.2001 4.3125 21.0751L2.5625 27.5001L9.125 25.7751C10.9375 26.7626 12.975 27.2876 15.05 27.2876C21.875 27.2876 27.4375 21.7251 27.4375 14.9001C27.4375 11.5876 26.15 8.47507 23.8125 6.13757ZM15.05 25.1876C13.2 25.1876 11.3875 24.6876 9.8 23.7501L9.425 23.5251L5.525 24.5501L6.5625 20.7501L6.3125 20.3626C5.28443 18.7214 4.73866 16.8242 4.7375 14.8876C4.7375 9.21257 9.3625 4.58757 15.0375 4.58757C17.7875 4.58757 20.375 5.66257 22.3125 7.61257C23.272 8.5674 24.0324 9.70325 24.5495 10.9542C25.0667 12.2052 25.3302 13.5464 25.325 14.9001C25.35 20.5751 20.725 25.1876 15.05 25.1876ZM20.7 17.4876C20.3875 17.3376 18.8625 16.5876 18.5875 16.4751C18.3 16.3751 18.1 16.3251 17.8875 16.6251C17.675 16.9376 17.0875 17.6376 16.9125 17.8376C16.7375 18.0501 16.55 18.0751 16.2375 17.9126C15.925 17.7626 14.925 17.4251 13.75 16.3751C12.825 15.5501 12.2125 14.5376 12.025 14.2251C11.85 13.9126 12 13.7501 12.1625 13.5876C12.3 13.4501 12.475 13.2251 12.625 13.0501C12.775 12.8751 12.8375 12.7376 12.9375 12.5376C13.0375 12.3251 12.9875 12.1501 12.9125 12.0001C12.8375 11.8501 12.2125 10.3251 11.9625 9.70007C11.7125 9.10007 11.45 9.17507 11.2625 9.16257H10.6625C10.45 9.16257 10.125 9.23757 9.8375 9.55007C9.5625 9.86257 8.7625 10.6126 8.7625 12.1376C8.7625 13.6626 9.875 15.1376 10.025 15.3376C10.175 15.5501 12.2125 18.6751 15.3125 20.0126C16.05 20.3376 16.625 20.5251 17.075 20.6626C17.8125 20.9001 18.4875 20.8626 19.025 20.7876C19.625 20.7001 20.8625 20.0376 21.1125 19.3126C21.375 18.5876 21.375 17.9751 21.2875 17.8376C21.2 17.7001 21.0125 17.6376 20.7 17.4876Z" fill="#F8EAD2"/>
    </symbol>
    <symbol id="telegram">
        <path d="M20.579 11.0573L19.2165 19.7811C19.1977 19.9013 19.1493 20.015 19.0757 20.112C19.0021 20.209 18.9056 20.2861 18.7948 20.3366C18.684 20.387 18.5624 20.4091 18.441 20.401C18.3195 20.3928 18.202 20.3546 18.099 20.2898L13.5365 17.4311C13.4416 17.3717 13.3616 17.2915 13.3025 17.1966C13.2433 17.1017 13.2066 16.9945 13.1952 16.8832C13.1837 16.7719 13.1978 16.6595 13.2364 16.5545C13.2749 16.4495 13.337 16.3547 13.4177 16.2773L17.2052 12.6473C17.2477 12.6073 17.1977 12.5411 17.1477 12.5711L11.6577 15.8561C11.3314 16.0523 10.9439 16.1204 10.5702 16.0473L8.58272 15.6636C7.86522 15.5248 7.76647 14.5398 8.44022 14.2611L19.0677 9.8673C19.2488 9.79198 19.4466 9.7663 19.6409 9.79292C19.8352 9.81954 20.0188 9.8975 20.1729 10.0187C20.3271 10.14 20.446 10.3002 20.5176 10.4827C20.5892 10.6653 20.6108 10.8636 20.5802 11.0573" fill="#F8EAD2"/>
        <path fill-rule="evenodd" clip-rule="evenodd" d="M14.9998 2.13232C7.89357 2.13232 2.13232 7.89357 2.13232 14.9998C2.13232 22.1061 7.89357 27.8673 14.9998 27.8673C22.1061 27.8673 27.8673 22.1061 27.8673 14.9998C27.8673 7.89357 22.1061 2.13232 14.9998 2.13232ZM4.33732 14.9998C4.33732 13.5996 4.61312 12.2131 5.14896 10.9195C5.6848 9.62583 6.47019 8.4504 7.4603 7.4603C8.4504 6.47019 9.62583 5.6848 10.9195 5.14896C12.2131 4.61312 13.5996 4.33732 14.9998 4.33732C16.4 4.33732 17.7866 4.61312 19.0802 5.14896C20.3738 5.6848 21.5492 6.47019 22.5394 7.4603C23.5295 8.4504 24.3148 9.62583 24.8507 10.9195C25.3865 12.2131 25.6623 13.5996 25.6623 14.9998C25.6623 17.8277 24.539 20.5397 22.5394 22.5394C20.5397 24.539 17.8277 25.6623 14.9998 25.6623C12.172 25.6623 9.4599 24.539 7.4603 22.5394C5.46069 20.5397 4.33732 17.8277 4.33732 14.9998Z" fill="#F8EAD2"/>
    </symbol>
    <symbol id="mail">
        <path d="M26.25 15.0002C26.25 12.6495 25.5138 10.3579 24.1446 8.44719C22.7754 6.53646 20.8421 5.1026 18.6161 4.34702C16.3902 3.59144 13.9836 3.55208 11.7341 4.23447C9.4847 4.91687 7.50553 6.28674 6.07459 8.15168C4.64365 10.0166 3.83283 12.2829 3.75601 14.6323C3.67919 16.9817 4.34023 19.2962 5.64628 21.2506C6.95233 23.2051 8.83779 24.7013 11.0378 25.5292C13.2379 26.3571 15.642 26.475 17.9125 25.8665" stroke="#F8EAD2" stroke-width="2" stroke-linecap="round"/>
        <path d="M15 20C17.7614 20 20 17.7614 20 15C20 12.2386 17.7614 10 15 10C12.2386 10 10 12.2386 10 15C10 17.7614 12.2386 20 15 20Z" stroke="#F8EAD2" stroke-width="2"/>
        <path d="M20 11.25V16.875C20 17.7038 20.3292 18.4987 20.9153 19.0847C21.5013 19.6708 22.2962 20 23.125 20C23.9538 20 24.7487 19.6708 25.3347 19.0847C25.9208 18.4987 26.25 17.7038 26.25 16.875V15" stroke="#F8EAD2" stroke-width="2" stroke-linecap="round"/>
    </symbol>
    <symbol id="number">
        <path d="M15.0001 27.8069C21.9938 27.8069 27.8069 22.0062 27.8069 15.0001C27.8069 8.00639 21.981 2.19336 14.9872 2.19336C7.98171 2.19336 2.19385 8.00639 2.19385 15.0001C2.19385 22.0062 7.99403 27.8069 15.0001 27.8069ZM15.0006 25.6726C9.07349 25.6726 4.33938 20.9262 4.33938 15.0001C4.33938 9.08586 9.06063 4.32765 14.9872 4.32765C20.901 4.32765 25.6592 9.0864 25.6721 15.0001C25.6844 20.9268 20.9133 25.6726 14.9996 25.6726M11.9862 17.9637C14.9112 20.9016 18.6408 22.7594 20.8506 20.5619C20.9289 20.4848 21.0003 20.4009 21.0638 20.3112C21.6413 19.671 21.8047 18.8171 21.0638 18.2648C20.4863 17.8501 19.8713 17.4237 18.8288 16.6951C18.1008 16.1809 17.6235 16.3057 17.0588 16.8709L16.5563 17.3605C16.4058 17.4987 16.1674 17.4864 16.004 17.3857C15.5647 17.1221 14.8238 16.5318 14.1205 15.8289C13.4299 15.1378 12.8026 14.36 12.5637 13.9453C12.4758 13.8071 12.4131 13.581 12.5888 13.4182L13.0785 12.8905C13.6437 12.3007 13.769 11.8485 13.2419 11.1076L11.6974 8.923C11.1697 8.18211 10.4042 8.32032 9.5626 8.94818C9.49992 8.99854 9.4501 9.04889 9.39974 9.09872C7.18992 11.3085 9.06063 15.0376 11.9862 17.9632" fill="#F8EAD2"/>
    </symbol>
    <symbol id="close">
        <path d="M13.5389 0.219668C13.8318 -0.0732157 14.3066 -0.0732299 14.5995 0.219668C14.8922 0.512566 14.8922 0.987363 14.5995 1.28022L8.4696 7.40912L14.7792 13.7187C15.0721 14.0116 15.0721 14.4873 14.7792 14.7802C14.4864 15.0729 14.0115 15.0728 13.7186 14.7802L7.40905 8.47064L1.28015 14.6005C0.987278 14.8933 0.512459 14.8933 0.219599 14.6005C-0.0732407 14.3077 -0.0731587 13.8329 0.219599 13.54L6.34851 7.40912L0.399287 1.4599C0.10649 1.16707 0.106633 0.692277 0.399287 0.399356C0.692164 0.106453 1.16695 0.10646 1.45983 0.399356L7.40905 6.34857L13.5389 0.219668Z" fill="#988572"/>
    </symbol>
    <symbol id="popup">
        <path d="M6.5 7.88403L1.65589 12.7281C1.47465 12.9094 1.24398 13 0.963878 13C0.683777 13 0.453105 12.9094 0.271863 12.7281C0.0906207 12.5469 0 12.3162 0 12.0361C0 11.756 0.0906207 11.5253 0.271863 11.3441L5.11597 6.5L0.271863 1.65589C0.0906207 1.47465 0 1.24398 0 0.963878C0 0.683777 0.0906207 0.453105 0.271863 0.271863C0.453105 0.0906207 0.683777 0 0.963878 0C1.24398 0 1.47465 0.0906207 1.65589 0.271863L6.5 5.11597L11.3441 0.271863C11.5253 0.0906207 11.756 0 12.0361 0C12.3162 0 12.5469 0.0906207 12.7281 0.271863C12.9094 0.453105 13 0.683777 13 0.963878C13 1.24398 12.9094 1.47465 12.7281 1.65589L7.88403 6.5L12.7281 11.3441C12.9094 11.5253 13 11.756 13 12.0361C13 12.3162 12.9094 12.5469 12.7281 12.7281C12.5469 12.9094 12.3162 13 12.0361 13C11.756 13 11.5253 12.9094 11.3441 12.7281L6.5 7.88403Z" fill="#121212"/>
    </symbol>
    <symbol id="image-prev">
        <path d="M7.126 1.7925L5.8335 0.5L0.333496 6L5.8335 11.5L7.126 10.2075L2.92766 6L7.126 1.7925Z" fill="#F9F5EF"/>
    </symbol>
    <symbol id="image-next">
        <path d="M2.18508 0.5L0.892578 1.7925L5.09091 6L0.892578 10.2075L2.18508 11.5L7.68508 6L2.18508 0.5Z" fill="#F9F5EF"/>
    </symbol>
    <symbol id="accordion__arrow">
        <path fill-rule="evenodd" clip-rule="evenodd" d="M5.7066 5.70627C5.5191 5.89353 5.26493 5.99872 4.99993 5.99872C4.73493 5.99872 4.48077 5.89353 4.29327 5.70627L0.521267 1.9356C0.333759 1.748 0.228453 1.4936 0.228516 1.22836C0.228578 0.963126 0.334004 0.708775 0.5216 0.521267C0.709197 0.333759 0.963597 0.228453 1.22884 0.228516C1.49408 0.228578 1.74843 0.334004 1.93593 0.5216L4.99993 3.5856L8.06393 0.5216C8.25245 0.339351 8.50501 0.238436 8.7672 0.24059C9.0294 0.242744 9.28027 0.347795 9.46576 0.533116C9.65126 0.718438 9.75655 0.969202 9.75895 1.2314C9.76135 1.4936 9.66067 1.74625 9.4786 1.93493L5.70727 5.70693L5.7066 5.70627Z" fill="#121212"/>
    </symbol>
</svg>